<svg height="512" viewBox="0 0 64 64" width="512" xmlns="http://www.w3.org/2000/svg"><g id="Coding"><path d="m55 17h-46a4 4 0 0 0 -4 4v28a4 4 0 0 0 4 4h46a4 4 0 0 0 4-4v-28a4 4 0 0 0 -4-4z" fill="#57a4ff"/><path d="m55 17h-2a4 4 0 0 1 4 4v28a4 4 0 0 1 -4 4h2a4 4 0 0 0 4-4v-28a4 4 0 0 0 -4-4z" fill="#2488ff"/><path d="m9 53h-6v4a4 4 0 0 0 4 4h50a4 4 0 0 0 4-4v-4z" fill="#005ece"/><path d="m59 53v4a4 4 0 0 1 -4 4h2a4 4 0 0 0 4-4v-4z" fill="#004fac"/><path d="m27 55a2 2 0 0 0 2 2h6a2 2 0 0 0 2-2v-2h-10z" fill="#ffcd00"/><path d="m9 21h46v28h-46z" fill="#ffdaaa"/><path d="m43 3h-22a4 4 0 0 0 -4 4v11a4 4 0 0 0 4 4h3v7l6-7h13a4 4 0 0 0 4-4v-11a4 4 0 0 0 -4-4z" fill="#ffcd00"/><path d="m26 49h29v-28c0 16.582-12.971 28-29 28z" fill="#ffc477"/><path d="m61 52h-2.026a4.948 4.948 0 0 0 1.026-3v-28a5.006 5.006 0 0 0 -5-5h-7v-9a5.006 5.006 0 0 0 -5-5h-22a5.006 5.006 0 0 0 -5 5v9h-7a5.006 5.006 0 0 0 -5 5v28a4.948 4.948 0 0 0 1.026 3h-2.026a1 1 0 0 0 -1 1v4a5.006 5.006 0 0 0 5 5h50a5.006 5.006 0 0 0 5-5v-4a1 1 0 0 0 -1-1zm-43-45a3 3 0 0 1 3-3h22a3 3 0 0 1 3 3v11a3 3 0 0 1 -3 3h-13a1 1 0 0 0 -.759.349l-4.241 4.951v-4.3a1 1 0 0 0 -1-1h-3a3 3 0 0 1 -3-3zm-12 42v-28a3 3 0 0 1 3-3h7a5.006 5.006 0 0 0 5 5h2v6a1 1 0 0 0 1.759.651l5.701-6.651h12.54a5.006 5.006 0 0 0 5-5h7a3 3 0 0 1 3 3v28a3 3 0 0 1 -3 3h-46a3 3 0 0 1 -3-3zm22 5h8v1a1 1 0 0 1 -1 1h-6a1 1 0 0 1 -1-1zm32 3a3 3 0 0 1 -3 3h-50a3 3 0 0 1 -3-3v-3h22v1a3 3 0 0 0 3 3h6a3 3 0 0 0 3-3v-1h22z"/><path d="m56 49v-28a1 1 0 0 0 -1-1h-5a1 1 0 0 0 0 2h4v26h-44v-26h4a1 1 0 0 0 0-2h-5a1 1 0 0 0 -1 1v28a1 1 0 0 0 1 1h46a1 1 0 0 0 1-1z"/><path d="m14 29a1 1 0 0 0 1 1h2a1 1 0 0 0 0-2h-2a1 1 0 0 0 -1 1z"/><path d="m17 32h-2a1 1 0 0 0 0 2h2a1 1 0 0 0 0-2z"/><path d="m17 36h-2a1 1 0 0 0 0 2h2a1 1 0 0 0 0-2z"/><path d="m17 40h-2a1 1 0 0 0 0 2h2a1 1 0 0 0 0-2z"/><path d="m17 44h-2a1 1 0 0 0 0 2h2a1 1 0 0 0 0-2z"/><path d="m30 30h19a1 1 0 0 0 0-2h-19a1 1 0 0 0 0 2z"/><path d="m29 34h16a1 1 0 0 0 0-2h-16a1 1 0 0 0 0 2z"/><path d="m21 38h12a1 1 0 0 0 0-2h-12a1 1 0 0 0 0 2z"/><path d="m21 42h12a1 1 0 0 0 0-2h-12a1 1 0 0 0 0 2z"/><path d="m21 46h12a1 1 0 0 0 0-2h-12a1 1 0 0 0 0 2z"/><path d="m20.445 12.832 6 4a1 1 0 1 0 1.11-1.664l-4.567-3.044 4.459-2.224a1 1 0 1 0 -.894-1.79l-6 3a1 1 0 0 0 -.108 1.727z"/><path d="m36.553 9.9 4.459 2.229-4.567 3.044a1 1 0 0 0 1.11 1.664l6-4a1 1 0 0 0 -.108-1.727l-6-3a1 1 0 0 0 -.894 1.79z"/><path d="m29.658 18.94a1 1 0 0 0 1.281-.6l4-11a1 1 0 1 0 -1.878-.684l-4 11a1 1 0 0 0 .597 1.284z"/><path d="m21 34h4a1 1 0 0 0 0-2h-4a1 1 0 0 0 0 2z"/><path d="m46 37a1 1 0 0 0 -1-1h-8a1 1 0 0 0 0 2h8a1 1 0 0 0 1-1z"/><path d="m39 40h-2a1 1 0 0 0 0 2h2a1 1 0 0 0 0-2z"/><path d="m39 44h-2a1 1 0 0 0 0 2h2a1 1 0 0 0 0-2z"/></g></svg>